# xmcd
#
# Track frame offsets:
# 150
# 17807
# 34037
# 52687
# 70455
# 87932
# 106892
# 125965
# 140205
# 154757
# 173275
# 187762
#
# Disc length: 2739 seconds
#
#
# Revision: 12
# Processed by: cddbd v1.5.1PL0 Copyright (c) Steve Scherf et al.
# Submitted via: FreeRIP 2.90 
#
DISCID=990ab10c
DTITLE=Lonestar - I'm Already There
DYEAR=2001
DGENRE=Country
TTITLE0=Out Go The Lights
TTITLE1=Unusually Unusual
TTITLE2=Not A Day Goes By
TTITLE3=I Want To Be The One
TTITLE4=With Me
TTITLE5=Without You
TTITLE6=I'm Already There
TTITLE7=Let's Bring It Back
TTITLE8=Must Be Love
TTITLE9=Softly
TTITLE10=Every Little Thing She Does
TTITLE11=Like A Good Cowboy
EXTD=
EXTT0=
EXTT1=
EXTT2=
EXTT3=
EXTT4=
EXTT5=
EXTT6=
EXTT7=
EXTT8=
EXTT9=
EXTT10=
EXTT11=
PLAYORDER=
